<svg xmlns:dc="http://purl.org/dc/elements/1.1/" xmlns:cc="http://creativecommons.org/ns#" xmlns:rdf="http://www.w3.org/1999/02/22-rdf-syntax-ns#" xmlns:svg="http://www.w3.org/2000/svg" xmlns="http://www.w3.org/2000/svg" xmlns:sodipodi="http://sodipodi.sourceforge.net/DTD/sodipodi-0.dtd" xmlns:inkscape="http://www.inkscape.org/namespaces/inkscape" version="1.1" x="0px" y="0px" viewBox="0 0 100 125"><g transform="translate(0,-952.36218)"><path style="text-indent:0;text-transform:none;direction:ltr;block-progression:tb;baseline-shift:baseline;color:#000000;enable-background:accumulate;" d="m 71.702251,969.02756 c -5.1893,5.19071 -8.6768,11.75346 -8.6876,17.46875 l -4.3437,4.34375 c 0.4014,-2.08081 0.6246,-4.26422 0.625,-6.46875 -0.01,-7.47824 -2.3827,-14.71061 -6.7187,-18.5 -0.397,-0.35277 -0.939,-0.53725 -1.4688,-0.5 -0.4255,0.0375 -0.8375,0.21561 -1.1562,0.5 -4.3225,3.8003 -6.6553,11.03091 -6.6563,18.5 0.01,6.46826 1.7832,12.74907 5.0625,16.78129 -3.8484,3.8839 -7.7447,7.7587 -11.7188,11.7187 0.4014,-2.0897 0.6246,-4.285 0.625,-6.5 -0.01,-7.47832 -2.3513,-14.7419 -6.687399,-18.53124 -0.402,-0.34172 -0.9432,-0.51445 -1.4688,-0.46875 -0.4255,0.0375 -0.8375,0.21561 -1.1562,0.5 -4.3224,3.80035 -6.6866,11.03097 -6.6876,18.49999 0.01,6.4683 1.8082,12.7491 5.0938,16.7813 -5.8174,5.8616 -11.818801,11.8313 -17.7812007,17.7812 -0.7694,0.7304 -0.7911,2.1028 -0.045,2.8571 0.7461,0.7544 2.1185997,0.748 2.8574997,-0.013 l 13.625001,-13.625 c 4.0277,3.3847 10.396099,5.2175 16.968799,5.2188 7.4783,-0.01 14.7107,-2.3825 18.5,-6.7188 0.6263,-0.7202 0.6263,-1.9048 0,-2.625 -3.8004,-4.3222 -11.031,-6.6552 -18.5,-6.6562 -2.3367,0 -4.6525,0.2392 -6.8438,0.6875 l 11.875,-11.9063 c 4.0277,3.3847 10.3961,5.2175 16.9688,5.2188 7.4783,-0.01 14.7107,-2.3825 18.5,-6.7187 0.6263,-0.7203 0.6263,-1.9048 0,-2.625 -3.8004,-4.32232 -11.031,-6.65532 -18.5,-6.65632 -2.3367,0 -4.6525,0.2392 -6.8438,0.6875 l 8.6876,-8.71874 c 5.7196,-0.023 12.3112,-3.5065 17.5,-8.6875 5.4746,-5.47698 9.0553,-12.51368 8.6562,-18.4375 -0.073,-0.95369 -0.9202,-1.78668 -1.875,-1.84375 -6.9908,0.0588 -14.3831,4.40375 -18.4063,8.65627 z m 16.0624,-4.4375 c -0.5858,3.92419 -3.1721,9.13927 -7.25,13.21875 -4.0771,4.07118 -9.3181,6.68818 -13.25,7.28125 0.5872,-3.92421 3.1731,-9.17172 7.25,-13.25 4.0761,-4.07047 9.3183,-6.65566 13.25,-7.25 z m -36.4687,5.9375 c 2.2252,3.07551 3.9959,8.36133 4,13.84375 0,5.48804 -1.7724,10.76573 -4,13.84377 -2.2351,-3.0709 -3.9962,-8.34415 -4,-13.84377 7e-4,-5.49709 1.7672,-10.76796 4,-13.84375 z m -22.031299,22 c 2.231,3.07258 3.995899,8.35144 3.999999,13.84374 -9e-4,5.4723 -1.750299,10.7299 -3.968699,13.8125 -2.2305,-3.0732 -4.0273,-8.3208 -4.0313,-13.8125 9e-4,-5.4792 1.7778,-10.76269 4,-13.84374 z m 34.718799,8.84374 c 5.4874,7e-4 10.765,1.7416 13.8438,3.9688 -3.0704,2.2356 -8.3435,4.027 -13.8438,4.0312 -5.488,-10e-4 -10.7656,-1.7723 -13.8438,-4 3.0709,-2.2351 8.3442,-3.9962 13.8438,-4 z m -22,22 c 5.4874,7e-4 10.765,1.7416 13.8438,3.9688 -3.0704,2.2356 -8.3435,4.027 -13.8438,4.0312 -5.488,-10e-4 -10.765599,-1.7724 -13.843799,-4 3.0709,-2.2351 8.344199,-3.9962 13.843799,-4 z" fill="#b7e1cd" fill-opacity="1" stroke="none" marker="none" visibility="visible" display="inline" overflow="visible"/></g></svg>
